<svg width="465" height="129" viewBox="0 0 465 129" fill="none" xmlns="http://www.w3.org/2000/svg">
<rect x="125" y="42" width="18" height="8" rx="4" fill="#FF3B30"/>
<rect x="125" y="56" width="18" height="8" rx="4" fill="#FF3B30"/>
<rect x="125" y="70" width="18" height="8" rx="4" fill="#FF3B30"/>
<rect x="125" y="84" width="18" height="8" rx="4" fill="#FF3B30"/>
<ellipse cx="101" cy="67.5" rx="11" ry="12.5" fill="#FF3B30"/>
<path fill-rule="evenodd" clip-rule="evenodd" d="M70.8796 53.9201C69.3596 57.8401 68.5996 62.2001 68.5996 67.0001C68.5996 71.8001 69.3596 76.2001 70.8796 80.2001C72.4796 84.1201 74.7196 87.5201 77.5996 90.4001C80.4796 93.2801 83.8796 95.4801 87.7996 97.0001V97.0001C92.6849 98.9542 96.0713 93.4141 93.2827 88.9523L88.576 81.4216C88.2072 80.8316 87.7717 80.2868 87.3549 79.7297C85.2514 76.9181 84.1996 72.6749 84.1996 67.0001C84.1996 60.3601 85.6396 55.7201 88.5196 53.0801C91.3996 50.3601 95.5596 49.0001 101 49.0001C106.44 49.0001 110.6 50.3601 113.48 53.0801C116.36 55.7201 117.8 60.3601 117.8 67.0001C117.8 72.7766 116.71 77.0697 114.53 79.8795C114.178 80.3335 113.812 80.7778 113.491 81.2541L103.87 95.5076C102.755 97.1589 103.955 99.3676 105.92 99.0401V99.0401C107.36 98.8001 108.92 98.5201 110.6 98.2001C112.28 97.8801 114.16 97.6001 116.24 97.3601C118.32 97.1201 120.84 97.0001 123.8 97.0001C124.92 97.0001 125.84 97.0401 126.56 97.1201C127.36 97.2001 128.24 97.2801 129.2 97.3601C130.64 97.5201 131.8 97.1601 132.68 96.2801C134.095 94.8644 132.291 93 130.289 93H129C126.239 93 124 90.7614 124 88V87.5244C124 85.0257 126.026 83 128.524 83H130.776C132.167 83 133.271 81.8262 133.16 80.4401C133.129 79.636 132.468 79 131.663 79H128.639C126.077 79 124 76.9229 124 74.3606V73.3849C124 70.9632 125.963 69 128.385 69H130.808C131.91 69 132.8 68.1018 132.8 67.0001C132.8 65.8983 131.91 65 130.808 65H128.385C125.963 65 124 63.0368 124 60.6151V59.6431C124 57.0788 126.079 55 128.643 55H131.786C132.524 55 133.13 54.4173 133.16 53.6801C133.271 52.228 132.115 51 130.658 51H128.529C126.028 51 124 48.9721 124 46.4705V46C124 43.2386 126.239 41 129 41H130.289C132.291 41 134.095 39.1357 132.68 37.7201C131.8 36.8401 130.64 36.4801 129.2 36.6401C128.24 36.7201 127.36 36.8001 126.56 36.8801C125.84 36.9601 124.92 37.0001 123.8 37.0001C121.08 37.0001 118.68 36.8801 116.6 36.6401C114.6 36.4001 112.72 36.1201 110.96 35.8001C109.28 35.4801 107.64 35.2001 106.04 34.9601C104.52 34.7201 102.84 34.6001 101 34.6001C96.1996 34.6001 91.7996 35.4001 87.7996 37.0001C83.8796 38.5201 80.4796 40.7201 77.5996 43.6001C74.7196 46.4801 72.4796 49.9201 70.8796 53.9201Z" fill="#FF3B30"/>
<path d="M6.10938 39C6.10938 38.28 6.42938 37.64 7.06938 37.08C7.70938 36.52 8.50938 36.08 9.46938 35.76C10.4294 35.44 11.4294 35.2 12.4694 35.04C13.5094 34.88 14.3894 34.8 15.1094 34.8C15.8294 34.8 16.7094 34.88 17.7494 35.04C18.7894 35.2 19.7894 35.44 20.7494 35.76C21.7094 36.08 22.5094 36.52 23.1494 37.08C23.7894 37.64 24.1094 38.28 24.1094 39C24.1094 40.6 24.0694 42.24 23.9894 43.92C23.9894 45.52 23.9494 47.12 23.8694 48.72C23.8694 50.24 23.8294 51.68 23.7494 53.04C23.6694 54.32 23.6294 55.44 23.6294 56.4C23.6294 58 24.3894 58.72 25.9094 58.56C26.9494 58.48 28.2694 58.4 29.8694 58.32C31.5494 58.24 33.4294 58.2 35.5094 58.2C37.5894 58.2 39.4294 58.24 41.0294 58.32C42.7094 58.4 44.0694 58.48 45.1094 58.56C46.6294 58.72 47.3894 58 47.3894 56.4C47.3894 55.44 47.3494 54.32 47.2694 53.04C47.2694 51.68 47.2294 50.24 47.1494 48.72C47.1494 47.12 47.1094 45.52 47.0294 43.92C47.0294 42.24 47.0294 40.6 47.0294 39C47.0294 38.28 47.3494 37.64 47.9894 37.08C48.6294 36.52 49.3894 36.08 50.2694 35.76C51.2294 35.44 52.2294 35.2 53.2694 35.04C54.3094 34.88 55.1894 34.8 55.9094 34.8C56.6294 34.8 57.5094 34.88 58.5494 35.04C59.5894 35.2 60.5894 35.44 61.5494 35.76C62.5094 36.08 63.3094 36.52 63.9494 37.08C64.5894 37.64 64.9094 38.28 64.9094 39C64.9094 41.24 64.8694 43.36 64.7894 45.36C64.7094 47.28 64.6294 49.28 64.5494 51.36C64.5494 53.44 64.5094 55.64 64.4294 57.96C64.3494 60.28 64.3094 62.96 64.3094 66C64.3094 68.96 64.3494 71.64 64.4294 74.04C64.5094 76.36 64.5494 78.56 64.5494 80.64C64.6294 82.72 64.7094 84.76 64.7894 86.76C64.8694 88.68 64.9094 90.76 64.9094 93C64.9094 93.72 64.5894 94.36 63.9494 94.92C63.3094 95.48 62.5094 95.92 61.5494 96.24C60.5894 96.56 59.5894 96.8 58.5494 96.96C57.5094 97.12 56.6294 97.2 55.9094 97.2C55.1894 97.2 54.3094 97.12 53.2694 96.96C52.2294 96.8 51.2294 96.56 50.2694 96.24C49.3094 95.92 48.5094 95.48 47.8694 94.92C47.2294 94.36 46.9094 93.72 46.9094 93C46.9094 91.4 46.9094 89.8 46.9094 88.2C46.9894 86.52 47.0294 84.92 47.0294 83.4C47.1094 81.8 47.1894 80.36 47.2694 79.08C47.3494 77.72 47.3894 76.56 47.3894 75.6C47.3894 74 46.6294 73.28 45.1094 73.44C44.0694 73.52 42.7094 73.6 41.0294 73.68C39.4294 73.76 37.5894 73.8 35.5094 73.8C33.4294 73.8 31.5494 73.76 29.8694 73.68C28.2694 73.6 26.9494 73.52 25.9094 73.44C24.3894 73.28 23.6294 74 23.6294 75.6C23.6294 76.56 23.6694 77.72 23.7494 79.08C23.8294 80.36 23.8694 81.8 23.8694 83.4C23.9494 84.92 23.9894 86.52 23.9894 88.2C24.0694 89.8 24.1094 91.4 24.1094 93C24.1094 93.72 23.7894 94.36 23.1494 94.92C22.5094 95.48 21.7094 95.92 20.7494 96.24C19.7894 96.56 18.7894 96.8 17.7494 96.96C16.7094 97.12 15.8294 97.2 15.1094 97.2C14.3894 97.2 13.5094 97.12 12.4694 96.96C11.4294 96.8 10.4294 96.56 9.46938 96.24C8.50938 95.92 7.70938 95.48 7.06938 94.92C6.42938 94.36 6.10938 93.72 6.10938 93C6.10938 90.76 6.14938 88.68 6.22938 86.76C6.30938 84.76 6.34938 82.72 6.34938 80.64C6.42938 78.56 6.50938 76.36 6.58938 74.04C6.66938 71.64 6.70938 68.96 6.70938 66C6.70938 62.96 6.66938 60.28 6.58938 57.96C6.50938 55.64 6.42938 53.48 6.34938 51.48C6.34938 49.4 6.30938 47.36 6.22938 45.36C6.14938 43.36 6.10938 41.24 6.10938 39Z" fill="#FF3B30"/>
<path d="M143.695 114C143.695 112.96 143.935 111.96 144.415 111C144.895 110.04 145.495 109.2 146.215 108.48C146.935 107.84 147.735 107.32 148.615 106.92C149.575 106.52 150.535 106.32 151.495 106.32C153.175 106.32 154.575 106.88 155.695 108C156.415 108.72 157.215 109.44 158.095 110.16C158.975 110.88 160.015 111.52 161.215 112.08C162.415 112.64 163.815 113.08 165.415 113.4C167.095 113.8 169.055 114 171.295 114C174.575 114 177.415 113.48 179.815 112.44C182.295 111.48 184.295 110.24 185.815 108.72C187.415 107.28 188.575 105.68 189.295 103.92C190.095 102.16 190.495 100.52 190.495 99C190.495 95.72 190.175 93.08 189.535 91.08C188.975 89.08 187.895 87.56 186.295 86.52C184.695 85.48 182.535 84.8 179.815 84.48C177.175 84.16 173.735 84 169.495 84C168.775 84 168.135 83.76 167.575 83.28C167.015 82.8 166.575 82.2 166.255 81.48C165.935 80.76 165.695 80 165.535 79.2C165.375 78.32 165.295 77.52 165.295 76.8C165.295 76.08 165.375 75.32 165.535 74.52C165.695 73.64 165.935 72.84 166.255 72.12C166.575 71.4 167.015 70.8 167.575 70.32C168.135 69.84 168.775 69.6 169.495 69.6C172.615 69.6 175.295 69.52 177.535 69.36C179.855 69.2 181.735 68.8 183.175 68.16C184.695 67.52 185.775 66.56 186.415 65.28C187.135 64 187.495 62.24 187.495 60C187.495 58.48 187.415 57 187.255 55.56C187.175 54.12 186.695 52.84 185.815 51.72C185.015 50.6 183.695 49.72 181.855 49.08C180.095 48.36 177.575 48 174.295 48C172.055 48 170.095 48.2 168.415 48.6C166.815 48.92 165.415 49.36 164.215 49.92C163.015 50.48 161.975 51.12 161.095 51.84C160.215 52.56 159.415 53.28 158.695 54C157.575 55.12 156.175 55.68 154.495 55.68C153.535 55.68 152.575 55.48 151.615 55.08C150.735 54.68 149.935 54.16 149.215 53.52C148.495 52.8 147.895 51.96 147.415 51C146.935 50.04 146.695 49.04 146.695 48C146.695 46.48 147.295 44.88 148.495 43.2C149.695 41.52 151.455 39.96 153.775 38.52C156.095 37.08 158.975 35.92 162.415 35.04C165.855 34.08 169.815 33.6 174.295 33.6C183.975 33.6 191.375 35.76 196.495 40.08C201.695 44.32 204.295 50.96 204.295 60C204.295 62.24 203.935 64.16 203.215 65.76C202.575 67.28 201.815 68.6 200.935 69.72C200.135 70.84 199.375 71.84 198.655 72.72C198.015 73.52 197.695 74.28 197.695 75C197.695 75.72 198.175 76.56 199.135 77.52C200.175 78.4 201.295 79.68 202.495 81.36C203.695 83.04 204.775 85.28 205.735 88.08C206.775 90.88 207.295 94.52 207.295 99C207.295 103.48 206.295 107.52 204.295 111.12C202.375 114.8 199.775 117.92 196.495 120.48C193.215 123.04 189.375 125 184.975 126.36C180.655 127.72 176.095 128.4 171.295 128.4C166.815 128.4 162.855 127.92 159.415 126.96C155.975 126.08 153.095 124.92 150.775 123.48C148.455 122.04 146.695 120.48 145.495 118.8C144.295 117.12 143.695 115.52 143.695 114ZM208.533 39C208.533 38.28 208.853 37.64 209.493 37.08C210.133 36.52 210.933 36.08 211.893 35.76C212.853 35.44 213.853 35.2 214.893 35.04C215.933 34.88 216.813 34.8 217.533 34.8C218.253 34.8 219.133 34.88 220.173 35.04C221.213 35.2 222.213 35.44 223.173 35.76C224.133 36.08 224.933 36.52 225.573 37.08C226.213 37.64 226.533 38.28 226.533 39C226.533 40.6 226.493 42.24 226.413 43.92C226.413 45.52 226.373 47.12 226.293 48.72C226.293 50.24 226.253 51.68 226.173 53.04C226.093 54.32 226.053 55.44 226.053 56.4C226.053 58 226.813 58.72 228.333 58.56C229.373 58.48 230.693 58.4 232.293 58.32C233.973 58.24 235.853 58.2 237.933 58.2C240.013 58.2 241.853 58.24 243.453 58.32C245.133 58.4 246.493 58.48 247.533 58.56C249.053 58.72 249.813 58 249.813 56.4C249.813 55.44 249.773 54.32 249.693 53.04C249.693 51.68 249.653 50.24 249.573 48.72C249.573 47.12 249.533 45.52 249.453 43.92C249.453 42.24 249.453 40.6 249.453 39C249.453 38.28 249.773 37.64 250.413 37.08C251.053 36.52 251.813 36.08 252.693 35.76C253.653 35.44 254.653 35.2 255.693 35.04C256.733 34.88 257.613 34.8 258.333 34.8C259.053 34.8 259.933 34.88 260.973 35.04C262.013 35.2 263.013 35.44 263.973 35.76C264.933 36.08 265.733 36.52 266.373 37.08C267.013 37.64 267.333 38.28 267.333 39C267.333 41.24 267.293 43.36 267.213 45.36C267.133 47.28 267.053 49.28 266.973 51.36C266.973 53.44 266.933 55.64 266.853 57.96C266.773 60.28 266.733 62.96 266.733 66C266.733 68.96 266.773 71.64 266.853 74.04C266.933 76.36 266.973 78.56 266.973 80.64C267.053 82.72 267.133 84.76 267.213 86.76C267.293 88.68 267.333 90.76 267.333 93C267.333 93.72 267.013 94.36 266.373 94.92C265.733 95.48 264.933 95.92 263.973 96.24C263.013 96.56 262.013 96.8 260.973 96.96C259.933 97.12 259.053 97.2 258.333 97.2C257.613 97.2 256.733 97.12 255.693 96.96C254.653 96.8 253.653 96.56 252.693 96.24C251.733 95.92 250.933 95.48 250.293 94.92C249.653 94.36 249.333 93.72 249.333 93C249.333 91.4 249.333 89.8 249.333 88.2C249.413 86.52 249.453 84.92 249.453 83.4C249.533 81.8 249.613 80.36 249.693 79.08C249.773 77.72 249.813 76.56 249.813 75.6C249.813 74 249.053 73.28 247.533 73.44C246.493 73.52 245.133 73.6 243.453 73.68C241.853 73.76 240.013 73.8 237.933 73.8C235.853 73.8 233.973 73.76 232.293 73.68C230.693 73.6 229.373 73.52 228.333 73.44C226.813 73.28 226.053 74 226.053 75.6C226.053 76.56 226.093 77.72 226.173 79.08C226.253 80.36 226.293 81.8 226.293 83.4C226.373 84.92 226.413 86.52 226.413 88.2C226.493 89.8 226.533 91.4 226.533 93C226.533 93.72 226.213 94.36 225.573 94.92C224.933 95.48 224.133 95.92 223.173 96.24C222.213 96.56 221.213 96.8 220.173 96.96C219.133 97.12 218.253 97.2 217.533 97.2C216.813 97.2 215.933 97.12 214.893 96.96C213.853 96.8 212.853 96.56 211.893 96.24C210.933 95.92 210.133 95.48 209.493 94.92C208.853 94.36 208.533 93.72 208.533 93C208.533 90.76 208.573 88.68 208.653 86.76C208.733 84.76 208.773 82.72 208.773 80.64C208.853 78.56 208.933 76.36 209.013 74.04C209.093 71.64 209.133 68.96 209.133 66C209.133 62.96 209.093 60.28 209.013 57.96C208.933 55.64 208.853 53.48 208.773 51.48C208.773 49.4 208.733 47.36 208.653 45.36C208.573 43.36 208.533 41.24 208.533 39ZM268.514 66C268.514 61.2 269.274 56.84 270.794 52.92C272.394 48.92 274.634 45.48 277.514 42.6C280.394 39.72 283.794 37.52 287.714 36C291.714 34.4 296.114 33.6 300.914 33.6C302.754 33.6 304.434 33.72 305.954 33.96C307.554 34.2 309.194 34.48 310.874 34.8C312.634 35.12 314.514 35.4 316.514 35.64C318.594 35.88 320.994 36 323.714 36C324.834 36 325.754 35.96 326.474 35.88C327.274 35.8 328.154 35.72 329.114 35.64C330.554 35.48 331.714 35.84 332.594 36.72C333.474 37.6 333.874 38.76 333.794 40.2C333.714 42.44 333.594 44.56 333.434 46.56C333.354 48.56 333.234 50.6 333.074 52.68C332.994 54.68 332.914 56.76 332.834 58.92C332.754 61.08 332.714 63.44 332.714 66C332.714 68.56 332.754 70.92 332.834 73.08C332.914 75.24 332.994 77.36 333.074 79.44C333.234 81.44 333.354 83.44 333.434 85.44C333.594 87.44 333.714 89.56 333.794 91.8C333.874 93.24 333.474 94.4 332.594 95.28C331.714 96.16 330.554 96.52 329.114 96.36C328.154 96.28 327.274 96.2 326.474 96.12C325.754 96.04 324.834 96 323.714 96C320.754 96 318.234 96.12 316.154 96.36C314.074 96.6 312.194 96.88 310.514 97.2C308.834 97.52 307.274 97.8 305.834 98.04C304.394 98.28 302.754 98.4 300.914 98.4C296.114 98.4 291.714 97.6 287.714 96C283.794 94.48 280.394 92.28 277.514 89.4C274.634 86.52 272.394 83.12 270.794 79.2C269.274 75.2 268.514 70.8 268.514 66ZM300.914 84C306.354 84 310.514 82.68 313.394 80.04C316.274 77.32 317.714 72.64 317.714 66C317.714 59.36 316.274 54.72 313.394 52.08C310.514 49.36 306.354 48 300.914 48C295.474 48 291.314 49.36 288.434 52.08C285.554 54.72 284.114 59.36 284.114 66C284.114 72.64 285.554 77.32 288.434 80.04C291.314 82.68 295.474 84 300.914 84ZM344.114 34.8C344.834 34.8 345.714 34.88 346.754 35.04C347.794 35.2 348.794 35.44 349.754 35.76C350.714 36.08 351.514 36.52 352.154 37.08C352.794 37.64 353.114 38.28 353.114 39C353.114 39.72 353.074 40.64 352.994 41.76C352.914 42.8 352.834 43.88 352.754 45C352.754 46.12 352.714 47.24 352.634 48.36C352.554 49.4 352.514 50.28 352.514 51C352.514 57.64 353.754 62.32 356.234 65.04C358.714 67.68 362.674 69 368.114 69C373.554 69 377.514 67.68 379.994 65.04C382.474 62.32 383.714 57.64 383.714 51C383.714 50.28 383.674 49.4 383.594 48.36C383.514 47.24 383.434 46.12 383.354 45C383.354 43.88 383.314 42.8 383.234 41.76C383.154 40.64 383.114 39.72 383.114 39C383.114 38.28 383.434 37.64 384.074 37.08C384.714 36.52 385.514 36.08 386.474 35.76C387.434 35.44 388.434 35.2 389.474 35.04C390.514 34.88 391.394 34.8 392.114 34.8C392.834 34.8 393.714 34.88 394.754 35.04C395.794 35.2 396.794 35.44 397.754 35.76C398.714 36.08 399.514 36.52 400.154 37.08C400.794 37.64 401.114 38.28 401.114 39C401.114 41.24 401.074 43.36 400.994 45.36C400.914 47.28 400.834 49.28 400.754 51.36C400.754 53.44 400.714 55.64 400.634 57.96C400.554 60.28 400.514 62.96 400.514 66C400.514 68.96 400.554 71.64 400.634 74.04C400.794 76.36 400.954 78.56 401.114 80.64C401.274 82.72 401.394 84.76 401.474 86.76C401.634 88.68 401.714 90.76 401.714 93C401.714 93.72 401.394 94.36 400.754 94.92C400.194 95.48 399.474 95.92 398.594 96.24C397.794 96.56 396.874 96.8 395.834 96.96C394.874 97.12 394.034 97.2 393.314 97.2C392.594 97.2 391.714 97.12 390.674 96.96C389.714 96.8 388.794 96.56 387.914 96.24C387.114 95.92 386.394 95.48 385.754 94.92C385.194 94.36 384.914 93.72 384.914 93C384.914 90.52 384.874 88.52 384.794 87C384.794 85.48 384.754 84.28 384.674 83.4C384.514 81.88 383.634 81.36 382.034 81.84C380.834 82.24 379.074 82.6 376.754 82.92C374.514 83.24 371.634 83.4 368.114 83.4C361.074 83.4 355.394 82.24 351.074 79.92C346.754 77.52 343.394 74.28 340.994 70.2C338.674 66.12 337.114 61.4 336.314 56.04C335.514 50.68 335.114 45 335.114 39C335.114 38.28 335.434 37.64 336.074 37.08C336.714 36.52 337.514 36.08 338.474 35.76C339.434 35.44 340.434 35.2 341.474 35.04C342.514 34.88 343.394 34.8 344.114 34.8ZM411.886 34.8C412.606 34.8 413.406 34.88 414.286 35.04C415.246 35.2 416.126 35.44 416.926 35.76C417.726 36.08 418.366 36.52 418.846 37.08C419.406 37.64 419.686 38.28 419.686 39C419.686 39.64 419.646 40.48 419.566 41.52C419.566 42.48 419.526 43.44 419.446 44.4C419.366 45.76 419.566 46.6 420.046 46.92C420.606 47.24 421.686 47.24 423.286 46.92C424.326 46.52 425.566 46.2 427.006 45.96C428.526 45.72 430.286 45.6 432.286 45.6C436.766 45.6 440.726 46.28 444.166 47.64C447.606 49 450.486 50.88 452.806 53.28C455.126 55.6 456.886 58.36 458.086 61.56C459.286 64.76 459.886 68.24 459.886 72C459.886 75.76 459.286 79.24 458.086 82.44C456.886 85.64 455.126 88.44 452.806 90.84C450.486 93.16 447.606 95 444.166 96.36C440.726 97.72 436.766 98.4 432.286 98.4C427.806 98.4 423.846 97.72 420.406 96.36C416.966 95 414.086 93.16 411.766 90.84C409.446 88.44 407.686 85.64 406.486 82.44C405.286 79.24 404.686 75.76 404.686 72C404.686 68.24 404.646 64.56 404.566 60.96C404.486 57.28 404.406 53.96 404.326 51C404.326 47.96 404.286 45.4 404.206 43.32C404.126 41.16 404.086 39.72 404.086 39C404.086 38.28 404.326 37.64 404.806 37.08C405.366 36.52 406.046 36.08 406.846 35.76C407.646 35.44 408.486 35.2 409.366 35.04C410.326 34.88 411.166 34.8 411.886 34.8ZM419.086 72C419.086 76.56 420.126 79.92 422.206 82.08C424.366 84.16 427.726 85.2 432.286 85.2C441.086 85.2 445.486 80.8 445.486 72C445.486 68.08 444.406 64.92 442.246 62.52C440.166 60.04 436.846 58.8 432.286 58.8C427.726 58.8 424.366 60.04 422.206 62.52C420.126 64.92 419.086 68.08 419.086 72Z" fill="#FF3B30"/>
</svg>
