<svg width="270" height="376" viewBox="0 0 270 376" fill="none" xmlns="http://www.w3.org/2000/svg">
<path d="M93 46.5C93 72.1812 72.1812 93 46.5 93C20.8188 93 0 72.1812 0 46.5C0 20.8188 20.8188 0 46.5 0C72.1812 0 93 20.8188 93 46.5Z" fill="url(#paint0_linear_61_26)"/>
<path d="M270 329.5C270 355.181 249.181 376 223.5 376C197.819 376 177 355.181 177 329.5C177 303.819 197.819 283 223.5 283C249.181 283 270 303.819 270 329.5Z" fill="url(#paint1_linear_61_26)"/>
<path d="M5 139C5 116.356 23.3563 98 46 98C68.6437 98 87 116.356 87 139V335C87 357.644 68.6437 376 46 376C23.3563 376 5 357.644 5 335V139Z" fill="url(#paint2_linear_61_26)"/>
<path d="M182 41C182 18.3563 200.356 0 223 0C245.644 0 264 18.3563 264 41V237C264 259.644 245.644 278 223 278C200.356 278 182 259.644 182 237V41Z" fill="url(#paint3_linear_61_26)"/>
<path d="M201 188.5C201 200.926 170.555 211 133 211C95.4446 211 65 200.926 65 188.5C65 176.074 95.4446 166 133 166C170.555 166 201 176.074 201 188.5Z" fill="url(#paint4_linear_61_26)"/>
<defs>
<linearGradient id="paint0_linear_61_26" x1="11.873" y1="3.48311e-06" x2="258.127" y2="376" gradientUnits="userSpaceOnUse">
<stop stop-color="#007AFF"/>
<stop offset="1" stop-color="#004999"/>
</linearGradient>
<linearGradient id="paint1_linear_61_26" x1="11.873" y1="3.48311e-06" x2="258.127" y2="376" gradientUnits="userSpaceOnUse">
<stop stop-color="#007AFF"/>
<stop offset="1" stop-color="#004999"/>
</linearGradient>
<linearGradient id="paint2_linear_61_26" x1="70.9805" y1="166" x2="80.7501" y2="228.782" gradientUnits="userSpaceOnUse">
<stop stop-color="#007AFF"/>
<stop offset="1" stop-color="#004999"/>
</linearGradient>
<linearGradient id="paint3_linear_61_26" x1="70.9805" y1="166" x2="80.7501" y2="228.782" gradientUnits="userSpaceOnUse">
<stop stop-color="#007AFF"/>
<stop offset="1" stop-color="#004999"/>
</linearGradient>
<linearGradient id="paint4_linear_61_26" x1="70.9805" y1="166" x2="80.7501" y2="228.782" gradientUnits="userSpaceOnUse">
<stop stop-color="#007AFF"/>
<stop offset="1" stop-color="#004999"/>
</linearGradient>
</defs>
</svg>
