<svg width="466" height="132" viewBox="0 0 466 132" fill="none" xmlns="http://www.w3.org/2000/svg">
<g filter="url(#filter0_d_24_45)">
<path d="M126.022 49.6V106H118.342V81.64H88.8216V106H81.1416V49.6H88.8216V73.84H118.342V49.6H126.022ZM158.095 48.16C162.895 48.16 167.135 49.24 170.815 51.4C174.495 53.48 176.935 55.92 178.135 58.72L177.895 51.04V49.6H186.175V106H178.255V105.04L178.495 97.36C177.695 99.28 176.255 101.04 174.175 102.64C172.095 104.16 169.655 105.36 166.855 106.24C164.055 107.12 161.135 107.56 158.095 107.56C152.415 107.56 147.415 106.2 143.095 103.48C138.855 100.76 135.535 97.16 133.135 92.68C130.735 88.12 129.535 83.16 129.535 77.8C129.535 71.88 130.735 66.72 133.135 62.32C135.615 57.84 139.015 54.36 143.335 51.88C147.655 49.4 152.575 48.16 158.095 48.16ZM157.855 99.4C161.935 99.4 165.535 98.44 168.655 96.52C171.775 94.52 174.215 91.92 175.975 88.72C177.815 85.44 178.735 81.8 178.735 77.8C178.735 73.88 177.815 70.32 175.975 67.12C174.215 63.84 171.775 61.24 168.655 59.32C165.535 57.32 161.935 56.32 157.855 56.32C153.855 56.32 150.335 57.28 147.295 59.2C144.255 61.04 141.895 63.6 140.215 66.88C138.535 70.08 137.695 73.72 137.695 77.8C137.695 81.88 138.535 85.56 140.215 88.84C141.895 92.12 144.255 94.72 147.295 96.64C150.335 98.48 153.855 99.4 157.855 99.4ZM188.973 94.6L195.693 90.16C197.613 93.44 200.373 95.96 203.973 97.72C207.573 99.48 211.413 100.36 215.493 100.36C218.453 100.36 221.293 100.04 224.013 99.4C226.813 98.68 229.093 97.6 230.853 96.16C232.613 94.64 233.493 92.72 233.493 90.4C233.493 88.24 232.853 86.44 231.573 85C230.293 83.48 228.613 82.36 226.533 81.64C224.533 80.84 222.453 80.36 220.293 80.2C219.173 80.2 218.213 80.2 217.413 80.2C216.693 80.12 215.933 80.08 215.133 80.08V73C215.933 73 216.693 73 217.413 73C218.213 72.92 219.173 72.88 220.293 72.88C223.493 72.64 226.133 71.8 228.213 70.36C230.293 68.92 231.333 66.88 231.333 64.24C231.333 62.16 230.573 60.48 229.053 59.2C227.533 57.84 225.573 56.88 223.173 56.32C220.773 55.68 218.213 55.36 215.493 55.36C211.333 55.36 207.653 56.32 204.453 58.24C201.253 60.08 198.533 62.8 196.293 66.4L189.573 61.96C192.133 57.8 195.413 54.44 199.413 51.88C203.493 49.24 208.853 47.92 215.493 47.92C220.213 47.92 224.413 48.6 228.093 49.96C231.773 51.24 234.653 53.12 236.733 55.6C238.893 58 239.973 60.88 239.973 64.24C239.973 67.12 238.933 69.64 236.853 71.8C234.853 73.88 232.773 75.44 230.613 76.48C232.373 76.96 234.133 77.84 235.893 79.12C237.733 80.4 239.253 82 240.453 83.92C241.733 85.84 242.373 88.04 242.373 90.52C242.373 94.44 241.173 97.68 238.773 100.24C236.453 102.72 233.253 104.6 229.173 105.88C225.173 107.16 220.613 107.8 215.493 107.8C209.493 107.8 204.213 106.72 199.653 104.56C195.173 102.32 191.613 99 188.973 94.6ZM291.603 49.6V106H283.923V81.64H254.403V106H246.723V49.6H254.403V73.84H283.923V49.6H291.603ZM323.677 48.16C328.477 48.16 332.717 49.24 336.397 51.4C340.077 53.48 342.517 55.92 343.717 58.72L343.477 51.04V49.6H351.757V106H343.837V105.04L344.077 97.36C343.277 99.28 341.837 101.04 339.757 102.64C337.677 104.16 335.237 105.36 332.437 106.24C329.637 107.12 326.717 107.56 323.677 107.56C317.997 107.56 312.997 106.2 308.677 103.48C304.437 100.76 301.117 97.16 298.717 92.68C296.317 88.12 295.117 83.16 295.117 77.8C295.117 71.88 296.317 66.72 298.717 62.32C301.197 57.84 304.597 54.36 308.917 51.88C313.237 49.4 318.157 48.16 323.677 48.16ZM323.437 99.4C327.517 99.4 331.117 98.44 334.237 96.52C337.357 94.52 339.797 91.92 341.557 88.72C343.397 85.44 344.317 81.8 344.317 77.8C344.317 73.88 343.397 70.32 341.557 67.12C339.797 63.84 337.357 61.24 334.237 59.32C331.117 57.32 327.517 56.32 323.437 56.32C319.437 56.32 315.917 57.28 312.877 59.2C309.837 61.04 307.477 63.6 305.797 66.88C304.117 70.08 303.277 73.72 303.277 77.8C303.277 81.88 304.117 85.56 305.797 88.84C307.477 92.12 309.837 94.72 312.877 96.64C315.917 98.48 319.437 99.4 323.437 99.4ZM405.554 49.6V106H397.754V91.72C395.834 92.84 393.394 93.8 390.434 94.6C387.554 95.4 384.314 95.8 380.714 95.8C376.474 95.8 372.634 94.92 369.194 93.16C365.754 91.32 363.034 88.84 361.034 85.72C359.034 82.52 357.994 78.84 357.914 74.68C357.914 72.6 357.874 70 357.794 66.88C357.794 63.68 357.794 60.52 357.794 57.4C357.874 54.28 357.914 51.68 357.914 49.6H365.474C365.394 53.28 365.314 57.28 365.234 61.6C365.234 65.84 365.314 69.84 365.474 73.6C365.554 78.56 367.034 82.28 369.914 84.76C372.794 87.16 376.394 88.4 380.714 88.48C383.994 88.56 387.194 88.2 390.314 87.4C393.434 86.52 395.914 85.56 397.754 84.52V49.6H405.554ZM419.872 49.6V98.8C422.912 98.88 425.432 98.92 427.432 98.92C429.512 98.92 432.152 98.88 435.352 98.8C440.152 98.72 444.152 97.24 447.352 94.36C450.632 91.4 452.272 87.32 452.272 82.12C452.272 78.68 451.472 75.8 449.872 73.48C448.272 71.16 446.312 69.4 443.992 68.2C441.672 67 439.352 66.32 437.032 66.16C435.352 66.08 434.112 66.04 433.312 66.04C432.592 66.04 431.672 66.04 430.552 66.04L427.072 58.72C430.192 58.64 433.272 58.64 436.312 58.72C440.872 58.96 444.952 60.12 448.552 62.2C452.232 64.2 455.152 66.92 457.312 70.36C459.472 73.8 460.552 77.72 460.552 82.12C460.552 86.92 459.512 91.12 457.432 94.72C455.432 98.24 452.592 101 448.912 103C445.312 104.92 441.152 105.92 436.432 106C433.232 106 430.392 106 427.912 106C425.512 106.08 423.072 106.08 420.592 106C418.112 106 415.312 106 412.192 106V49.6H419.872Z" fill="#32ADE6"/>
</g>
<g filter="url(#filter1_d_24_45)">
<path fill-rule="evenodd" clip-rule="evenodd" d="M25.5 51C28.5376 51 31 48.5376 31 45.5V41H34V45.5C34 48.5376 36.4624 51 39.5 51C42.5376 51 45 48.5376 45 45.5V41H48V45.5C48 48.5376 50.4624 51 53.5 51C56.5376 51 59 48.5376 59 45.5V41H62C68.627 41 74 46.3726 74 53V99C74 105.627 68.627 111 62 111H16C9.37305 111 4 105.627 4 99V53C4 46.3726 9.37305 41 16 41H20V45.5C20 48.5376 22.4624 51 25.5 51ZM16 65C16 58.3726 21.373 53 28 53H50C56.627 53 62 58.3726 62 65V87C62 93.6274 56.627 99 50 99H28C21.373 99 16 93.6274 16 87V65Z" fill="#32ADE6"/>
<rect x="30" y="49" width="9" height="16" rx="4.5" transform="rotate(180 30 49)" fill="#FF3B30"/>
<rect x="44" y="49" width="9" height="16" rx="4.5" transform="rotate(180 44 49)" fill="#FF3B30"/>
<rect x="58" y="49" width="9" height="16" rx="4.5" transform="rotate(180 58 49)" fill="#FF3B30"/>
<path d="M33.6278 70.504C33.6278 68.992 33.1958 67.792 32.3318 66.904C31.4918 66.016 30.3998 65.572 29.0558 65.572C27.9758 65.572 26.9798 65.848 26.0678 66.4C25.1798 66.952 24.4478 67.648 23.8718 68.488L20.7038 65.644C21.6398 64.252 22.8518 63.16 24.3398 62.368C25.8518 61.552 27.4838 61.144 29.2358 61.144C31.1558 61.144 32.7878 61.588 34.1318 62.476C35.4758 63.34 36.4958 64.504 37.1918 65.968C37.9118 67.408 38.2718 68.992 38.2718 70.72C38.2718 73.144 37.5518 75.448 36.1118 77.632C34.6718 79.792 32.7158 81.82 30.2438 83.716L32.7998 83.5H38.5598V88H21.4958V84.544C25.4798 81.976 28.4918 79.54 30.5318 77.236C32.5958 74.908 33.6278 72.664 33.6278 70.504ZM49.4 88.468C47.072 88.468 45.2 87.916 43.784 86.812C42.368 85.684 41.348 84.1 40.724 82.06C40.1 79.996 39.788 77.572 39.788 74.788C39.788 72.004 40.136 69.592 40.832 67.552C41.528 65.512 42.584 63.94 44 62.836C45.416 61.708 47.216 61.144 49.4 61.144C51.584 61.144 53.384 61.708 54.8 62.836C56.216 63.94 57.272 65.512 57.968 67.552C58.664 69.592 59.012 72.004 59.012 74.788C59.012 77.572 58.7 79.996 58.076 82.06C57.452 84.1 56.432 85.684 55.016 86.812C53.6 87.916 51.728 88.468 49.4 88.468ZM49.4 65.716C48.176 65.716 47.144 66.46 46.304 67.948C45.488 69.412 45.08 71.704 45.08 74.824C45.08 77.776 45.452 80.02 46.196 81.556C46.94 83.068 48.008 83.824 49.4 83.824C50.792 83.824 51.86 83.068 52.604 81.556C53.348 80.02 53.72 77.776 53.72 74.824C53.72 71.704 53.3 69.412 52.46 67.948C51.644 66.46 50.624 65.716 49.4 65.716Z" fill="#32ADE6"/>
<path d="M52.7138 93.17C52.0581 91.0666 53.8178 88.9976 55.9992 89.307L78.85 92.5484C81.19 92.8804 82.2451 95.6619 80.7139 97.4623L64.7314 116.255C63.2003 118.055 60.2854 117.46 59.5821 115.204L52.7138 93.17Z" fill="#FF3B30"/>
</g>
<defs>
<filter id="filter0_d_24_45" x="77.1406" y="47.9199" width="387.412" height="67.8799" filterUnits="userSpaceOnUse" color-interpolation-filters="sRGB">
<feFlood flood-opacity="0" result="BackgroundImageFix"/>
<feColorMatrix in="SourceAlpha" type="matrix" values="0 0 0 0 0 0 0 0 0 0 0 0 0 0 0 0 0 0 127 0" result="hardAlpha"/>
<feOffset dy="4"/>
<feGaussianBlur stdDeviation="2"/>
<feComposite in2="hardAlpha" operator="out"/>
<feColorMatrix type="matrix" values="0 0 0 0 0 0 0 0 0 0 0 0 0 0 0 0 0 0 0.25 0"/>
<feBlend mode="normal" in2="BackgroundImageFix" result="effect1_dropShadow_24_45"/>
<feBlend mode="normal" in="SourceGraphic" in2="effect1_dropShadow_24_45" result="shape"/>
</filter>
<filter id="filter1_d_24_45" x="0" y="33" width="97.1641" height="103.572" filterUnits="userSpaceOnUse" color-interpolation-filters="sRGB">
<feFlood flood-opacity="0" result="BackgroundImageFix"/>
<feColorMatrix in="SourceAlpha" type="matrix" values="0 0 0 0 0 0 0 0 0 0 0 0 0 0 0 0 0 0 127 0" result="hardAlpha"/>
<feOffset dy="4"/>
<feGaussianBlur stdDeviation="2"/>
<feComposite in2="hardAlpha" operator="out"/>
<feColorMatrix type="matrix" values="0 0 0 0 0 0 0 0 0 0 0 0 0 0 0 0 0 0 0.25 0"/>
<feBlend mode="normal" in2="BackgroundImageFix" result="effect1_dropShadow_24_45"/>
<feBlend mode="normal" in="SourceGraphic" in2="effect1_dropShadow_24_45" result="shape"/>
</filter>
</defs>
</svg>
